Coordinates
version=1
nRows=10
nColumns=22
inDegrees=yes

Units are S.I. units (second, meters, Newtons, ...)
If the header above contains a line with 'inDegrees', this indicates whether rotational values are in degrees (yes) or radians (no).

endheader
time	pelvis_tilt	pelvis_list	pelvis_rotation	pelvis_tx	pelvis_ty	pelvis_tz	hip_flexion_r	hip_adduction_r	hip_rotation_r	knee_angle_r	ankle_angle_r	subtalar_angle_r	hip_flexion_l	hip_adduction_l	hip_rotation_l	knee_angle_l	ankle_angle_l	subtalar_angle_l	lumbar_extension	lumbar_bending	lumbar_rotation
      0.01000000	     -2.49709209	     -4.20764821	     -8.79065701	     -1.35312898	      1.02417923	     -0.44218950	      2.69714640	      5.54528222	     -4.64118848	     -7.96629892	      6.95939619	     -2.96394701	      2.12394135	     -2.91703970	     -7.89360335	     -8.49068582	     10.49835512	     -1.59809936	     -6.93858260	      3.65805845	      1.54526314
      0.02000000	     -2.49779027	     -4.20714677	     -8.80082010	     -1.35317421	      1.02417302	     -0.44223345	      2.69963894	      5.54191156	     -4.64205426	     -7.96249868	      6.95806993	     -2.96497621	      2.12702177	     -2.91406790	     -7.89375944	     -8.49176169	     10.49884488	     -1.59862286	     -6.94580697	      3.66531953	      1.54206124
      0.03000000	     -2.49804087	     -4.20651576	     -8.81273516	     -1.35322663	      1.02416807	     -0.44228141	      2.70318887	      5.53838194	     -4.64150240	     -7.96036034	      6.95627051	     -2.96609275	      2.13025919	     -2.91035415	     -7.89528763	     -8.49404014	     10.49951415	     -1.59938360	     -6.95454711	      3.67350743	      1.53855621
      0.04000000	     -2.49282941	     -4.21055876	     -8.84859512	     -1.35331201	      1.02416953	     -0.44228753	      2.71038106	      5.54089503	     -4.60110250	     -7.97550597	      6.93577327	     -2.98909056	      2.13921664	     -2.91631060	     -7.96557725	     -8.52384027	     10.51656106	     -1.61816963	     -6.97661912	      3.68286601	      1.55944010
      0.05000000	     -2.49405136	     -4.20979951	     -8.85865760	     -1.35337288	      1.02416270	     -0.44232901	      2.71496172	      5.53792242	     -4.60078830	     -7.97286619	      6.93597367	     -2.98975501	      2.14281537	     -2.91324601	     -7.96518304	     -8.52259798	     10.51681414	     -1.61842472	     -6.98584840	      3.68894526	      1.55737175
      0.06000000	     -2.48958850	     -4.20913814	     -8.87741032	     -1.35345837	      1.02416321	     -0.44235858	      2.72795305	      5.53397597	     -4.58293594	     -7.99654196	      6.93263842	     -2.99414869	      2.14470791	     -2.91054290	     -7.97739395	     -8.53087358	     10.51791158	     -1.62194401	     -7.00538475	      3.69471959	      1.55581247
      0.07000000	     -2.49110713	     -4.20846098	     -8.88375809	     -1.35352691	      1.02415721	     -0.44238466	      2.73315547	      5.53230648	     -4.58291710	     -7.99320083	      6.93331060	     -2.99472198	      2.14937183	     -2.90927815	     -7.97994752	     -8.52857393	     10.51855102	     -1.62242352	     -7.01563222	      3.69694496	      1.55620260
      0.08000000	     -2.48837634	     -4.20355575	     -8.91935390	     -1.35361876	      1.02415594	     -0.44236567	      2.75235890	      5.52636320	     -4.55301269	     -8.02352458	      6.94173551	     -3.00700792	      2.15607318	     -2.90637038	     -8.04629940	     -8.54414424	     10.52941900	     -1.63385427	     -7.03388062	      3.69098734	      1.59168329
      0.09000000	     -2.48946647	     -4.20341927	     -8.92247857	     -1.35368621	      1.02415221	     -0.44237913	      2.75771084	      5.52574989	     -4.55222734	     -8.02183751	      6.94160708	     -3.00725765	      2.16025271	     -2.90637074	     -8.04689701	     -8.54122619	     10.52995521	     -1.63394056	     -7.04338946	      3.69144881	      1.59053812
      0.10000000	     -2.48554409	     -4.20297212	     -8.92898352	     -1.35378612	      1.02415931	     -0.44238518	      2.77303856	      5.52412162	     -4.54204169	     -8.04737756	      6.93619978	     -3.00863127	      2.16508821	     -2.90600935	     -8.05413067	     -8.54779144	     10.53463560	     -1.63485863	     -7.06463567	      3.68975414	      1.58876220
